<svg xmlns="http://www.w3.org/2000/svg" version="1.1" xmlns:xlink="http://www.w3.org/1999/xlink" xmlns:svgjs="http://svgjs.dev/svgjs" width="128" height="128" viewBox="0 0 128 128"><g transform="matrix(0.8046875,0,0,0.8046875,12.333870967741944,26.032884971217108)"><svg viewBox="0 0 155 114" data-background-color="#ece3ca" preserveAspectRatio="xMidYMid meet" height="94" width="128" xmlns="http://www.w3.org/2000/svg" xmlns:xlink="http://www.w3.org/1999/xlink"><g id="tight-bounds" transform="matrix(1,0,0,1,0.2499999999999858,0.22124999999999773)"><svg viewBox="0 0 154.5 113.5575" height="113.5575" width="154.5"><g><svg viewBox="0 0 154.5 113.5575" height="113.5575" width="154.5"><g><svg viewBox="0 0 154.5 113.5575" height="113.5575" width="154.5"><g id="textblocktransform"><svg viewBox="0 0 154.5 113.5575" height="113.5575" width="154.5" id="textblock"><g><svg viewBox="0 0 154.5 113.5575" height="113.5575" width="154.5"><g transform="matrix(1,0,0,1,0,0)"><svg width="154.5" viewBox="4 -22.05 30 22.05" height="113.5575" data-palette-color="#ef9995"><path d="M4-3.45L4-18.6 9.7-22.05 17.9-22.05 17.9-17.35 10.35-17.35 10.35-5.3 17.7-5.3 17.7 0 9.7 0 4-3.45ZM27.7-15.1L34-15.1 34-18.6 28.3-22.05 20.15-22.05 20.15-17.35 27.7-17.35 27.7-15.1ZM27.7-6.95L34-6.95 34-3.45 28.3 0 20.15 0 20.15-5.3 27.7-5.3 27.7-6.95Z" opacity="1" transform="matrix(1,0,0,1,0,0)" fill="#ffffff" class="wordmark-text-0" data-fill-palette-color="primary" id="text-0"></path></svg></g></svg></g></svg></g></svg></g></svg></g><defs></defs></svg><rect width="154.5" height="113.5575" fill="none" stroke="none" visibility="hidden"></rect></g></svg></g></svg>