<svg xmlns="http://www.w3.org/2000/svg" version="1.1" xmlns:xlink="http://www.w3.org/1999/xlink" xmlns:svgjs="http://svgjs.dev/svgjs" width="2000" height="454" viewBox="0 0 2000 454"><g transform="matrix(1,0,0,1,-1.2121212121212466,-0.019853015412849118)"><svg viewBox="0 0 396 90" data-background-color="#ece3ca" preserveAspectRatio="xMidYMid meet" height="454" width="2000" xmlns="http://www.w3.org/2000/svg" xmlns:xlink="http://www.w3.org/1999/xlink"><g id="tight-bounds" transform="matrix(1,0,0,1,0.2400000000000091,0.003935619795498724)"><svg viewBox="0 0 395.52 89.99182208465464" height="89.99182208465464" width="395.52"><g><svg viewBox="0 0 395.52 89.99182208465464" height="89.99182208465464" width="395.52"><g><svg viewBox="0 0 395.52 89.99182208465464" height="89.99182208465464" width="395.52"><g id="textblocktransform"><svg viewBox="0 0 395.52 89.99182208465464" height="89.99182208465464" width="395.52" id="textblock"><g><svg viewBox="0 0 395.52 38.89145194274028" height="38.89145194274028" width="395.52"><g transform="matrix(1,0,0,1,0,0)"><svg width="395.52" viewBox="4 -28.8 293.38 28.85" height="38.89145194274028" data-palette-color="#ef9995"><path d="M4-3.45L4-18.6 9.7-22.05 17.9-22.05 17.9-17.35 10.35-17.35 10.35-5.3 17.7-5.3 17.7 0 9.7 0 4-3.45ZM27.7-15.1L34-15.1 34-18.6 28.3-22.05 20.15-22.05 20.15-17.35 27.7-17.35 27.7-15.1ZM27.7-6.95L34-6.95 34-3.45 28.3 0 20.15 0 20.15-5.3 27.7-5.3 27.7-6.95ZM42-3.5L42-18.55 47.85-22 55.75-22 55.75-17.3 48.25-17.3 48.25-5.4 55.75-5.4 55.75-0.05 47.85-0.05 42-3.5ZM71.35-3.5L71.35-18.55 65.5-22 57.55-22 57.55-17.3 65.1-17.3 65.1-5.4 57.55-5.4 57.55-0.05 65.5-0.05 71.35-3.5ZM79.34-3.5L79.34-18.55 85.19-22 93.09-22 93.09-17.3 85.59-17.3 85.59-5.4 93.09-5.4 93.09-0.05 85.19-0.05 79.34-3.5ZM108.69-3.5L108.69-18.55 102.84-22 94.89-22 94.89-17.3 102.44-17.3 102.44-5.4 94.89-5.4 94.89-0.05 102.84-0.05 108.69-3.5ZM117.69 0.05L117.69-28.75 123.99-28.75 123.99-13.1 126.79-13.1 126.79-9.45 123.99-9.45 123.99 0.05 117.69 0.05ZM147.54-3.4L134.99-11.5 146.44-19.05 142.29-22 129.29-13.1 129.29-9.45 141.89 0.05 147.54-3.4ZM154.04 0L154.04-28.8 160.34-28.8 160.34-21.9 167.84-21.9 167.84-17.25 160.34-17.25 160.34-5.25 167.64-5.25 167.64 0 154.04 0ZM183.84-3.45L183.84-18.45 178.14-21.9 170.04-21.9 170.04-17.25 177.74-17.25 177.74-5.25 170.24-5.25 170.24 0 178.14 0 183.84-3.45ZM191.84-3.5L191.84-18.55 197.69-22 205.59-22 205.59-17.3 198.09-17.3 198.09-5.4 205.59-5.4 205.59-0.05 197.69-0.05 191.84-3.5ZM221.19-3.5L221.19-18.55 215.34-22 207.39-22 207.39-17.3 214.94-17.3 214.94-5.4 207.39-5.4 207.39-0.05 215.34-0.05 221.19-3.5ZM229.19-3.5L229.19-18.55 235.03-22 242.94-22 242.94-17.3 235.44-17.3 235.44-5.4 242.94-5.4 242.94-0.05 235.03-0.05 229.19-3.5ZM258.54-3.5L258.54-18.55 252.69-22 244.74-22 244.74-17.3 252.28-17.3 252.28-5.4 244.74-5.4 244.74-0.05 252.69-0.05 258.54-3.5ZM267.53 0.05L267.53-28.75 273.83-28.75 273.83-13.1 276.63-13.1 276.63-9.45 273.83-9.45 273.83 0.05 267.53 0.05ZM297.38-3.4L284.83-11.5 296.28-19.05 292.13-22 279.13-13.1 279.13-9.45 291.73 0.05 297.38-3.4Z" opacity="1" transform="matrix(1,0,0,1,0,0)" fill="#000000" class="wordmark-text-0" data-fill-palette-color="primary" id="text-0"></path></svg></g></svg></g><g transform="matrix(1,0,0,1,0,57.25412876040899)"><svg viewBox="0 0 395.52 32.73769332424565" height="32.73769332424565" width="395.52"><path d="M395.52 0l-5.456 16.369 5.456 16.369h-395.52l5.456-16.369-5.456-16.369z" data-fill-palette-color="tertiary" opacity="1" fill="#000000"></path><g transform="matrix(1,0,0,1,75.54432,9.181338408834355)"><svg width="244.43135999999998" viewBox="5 -28.8 653.75 38.45" height="14.375016506576936" data-palette-color="#ef9995"><path d="M5 0L5-21.85 11.25-21.85 11.25-19.7 18.75-21.85 18.75-17.2 11.25-17.2 11.25 0 5 0ZM27.5-15.05L27.5-19.1 21-21.85 21-15.05 27.5-15.05ZM62.2-18.55L62.2-12.85 56.3-9.4 48.3-9.4 48.3-13.25 55.85-13.25 55.85-17.35 48.3-17.35 48.3-22.05 56.3-22.05 62.2-18.55ZM55.65-6.95L62.2-6.95 62.2-3.45 56.3 0 48.3 0 48.3-5.3 55.65-5.3 55.65-6.95ZM32-18.55L32-3.45 37.9 0 45.85 0 45.85-5.3 38.3-5.3 38.3-9.4 45.85-9.4 45.85-13.25 38.3-13.25 38.3-17.35 45.85-17.35 45.85-22.05 37.9-22.05 32-18.55ZM100-28.8L100 0 86.4 0 86.4-5.25 93.7-5.25 93.7-17.25 86.2-17.25 86.2-21.9 93.7-21.9 93.7-28.8 100-28.8ZM70.2-3.45L70.2-18.45 75.9-21.9 84-21.9 84-17.25 76.3-17.25 76.3-5.25 83.8-5.25 83.8 0 75.9 0 70.2-3.45ZM123.99-3.4L123.99-9.75 129.69-13.2 137.89-13.2 137.89-9.35 130.34-9.35 130.34-5.25 137.89-5.25 137.89 0.05 129.69 0.05 123.99-3.4ZM130.34-15.05L123.99-15.05 123.99-18.5 129.69-22 137.89-22 137.89-17.3 130.34-17.3 130.34-15.05ZM153.99 0.05L153.99-18.5 148.29-22 140.09-22 140.09-17.3 147.64-17.3 147.64-13.2 140.09-13.2 140.09-9.35 147.64-9.35 147.64-5.25 140.29-5.25 140.29 0.05 153.99 0.05ZM163.49-0.05L163.49-22 169.84-22 169.84-19.85 177.24-22 177.24-17.3 169.84-17.3 169.84-0.05 163.49-0.05ZM193.44-0.05L193.44-18.55 187.54-22 179.64-22 179.64-17.3 187.19-17.3 187.19-0.05 193.44-0.05ZM231.74-28.8L231.74 0 218.13 0 218.13-5.25 225.44-5.25 225.44-17.25 217.94-17.25 217.94-21.9 225.44-21.9 225.44-28.8 231.74-28.8ZM201.94-3.45L201.94-18.45 207.63-21.9 215.74-21.9 215.74-17.25 208.03-17.25 208.03-5.25 215.53-5.25 215.53 0 207.63 0 201.94-3.45ZM256.73 0L256.73-28.8 263.03-28.8 263.03-21.9 270.53-21.9 270.53-17.25 263.03-17.25 263.03-5.25 270.33-5.25 270.33 0 256.73 0ZM286.53-3.45L286.53-18.45 280.83-21.9 272.73-21.9 272.73-17.25 280.43-17.25 280.43-5.25 272.93-5.25 272.93 0 280.83 0 286.53-3.45ZM291.43 0.05L291.43-28.75 297.83-28.75 297.83 0.05 291.43 0.05ZM337.13-21.85L337.13 0 330.88 0 330.88-2.25 323.38 0 323.38-5.25 330.88-5.25 330.88-21.85 337.13-21.85ZM307.32-21.85L307.32-3.45 312.97 0 321.07 0 321.07-5.25 313.63-5.25 313.63-21.85 307.32-21.85ZM376.32-18.55L376.32-12.85 370.42-9.4 362.42-9.4 362.42-13.25 369.97-13.25 369.97-17.35 362.42-17.35 362.42-22.05 370.42-22.05 376.32-18.55ZM369.77-6.95L376.32-6.95 376.32-3.45 370.42 0 362.42 0 362.42-5.3 369.77-5.3 369.77-6.95ZM346.12-18.55L346.12-3.45 352.02 0 359.97 0 359.97-5.3 352.42-5.3 352.42-9.4 359.97-9.4 359.97-13.25 352.42-13.25 352.42-17.35 359.97-17.35 359.97-22.05 352.02-22.05 346.12-18.55ZM400.32 0L400.32-21.85 406.57-21.85 406.57-19.7 414.07-21.85 414.07-17.2 406.57-17.2 406.57 0 400.32 0ZM422.82-15.05L422.82-19.1 416.32-21.85 416.32-15.05 422.82-15.05ZM457.51-18.55L457.51-12.85 451.62-9.4 443.62-9.4 443.62-13.25 451.17-13.25 451.17-17.35 443.62-17.35 443.62-22.05 451.62-22.05 457.51-18.55ZM450.96-6.95L457.51-6.95 457.51-3.45 451.62 0 443.62 0 443.62-5.3 450.96-5.3 450.96-6.95ZM427.31-18.55L427.31-3.45 433.21 0 441.17 0 441.17-5.3 433.62-5.3 433.62-9.4 441.17-9.4 441.17-13.25 433.62-13.25 433.62-17.35 441.17-17.35 441.17-22.05 433.21-22.05 427.31-18.55ZM465.51-3.45L465.51-18.6 471.21-22.05 479.41-22.05 479.41-17.35 471.86-17.35 471.86-5.3 479.21-5.3 479.21 0 471.21 0 465.51-3.45ZM489.21-15.1L495.51-15.1 495.51-18.6 489.81-22.05 481.66-22.05 481.66-17.35 489.21-17.35 489.21-15.1ZM489.21-6.95L495.51-6.95 495.51-3.45 489.81 0 481.66 0 481.66-5.3 489.21-5.3 489.21-6.95ZM533.71-18.55L533.71-12.85 527.81-9.4 519.81-9.4 519.81-13.25 527.36-13.25 527.36-17.35 519.81-17.35 519.81-22.05 527.81-22.05 533.71-18.55ZM527.16-6.95L533.71-6.95 533.71-3.45 527.81 0 519.81 0 519.81-5.3 527.16-5.3 527.16-6.95ZM503.51-18.55L503.51-3.45 509.41 0 517.36 0 517.36-5.3 509.81-5.3 509.81-9.4 517.36-9.4 517.36-13.25 509.81-13.25 509.81-17.35 517.36-17.35 517.36-22.05 509.41-22.05 503.51-18.55ZM568.46-18.55L568.46-6.4 562.86-3 554.96-3 554.96-7 562.21-7 562.21-17.3 554.66-17.3 554.66-22 562.86-22 568.46-18.55ZM538.61 9.65L538.61-22 552.46-22 552.46-17.3 544.96-17.3 544.96-7 552.21-7 552.21-3 544.96-3 544.96 9.65 538.61 9.65ZM576.45-22L582.75-22 582.75 0.05 576.45 0.05 576.45-22ZM582.65-28.7L582.65-24.05 576.45-24.05 576.45-28.7 582.65-28.7ZM620.95-18.55L620.95-12.85 615.05-9.4 607.05-9.4 607.05-13.25 614.6-13.25 614.6-17.35 607.05-17.35 607.05-22.05 615.05-22.05 620.95-18.55ZM614.4-6.95L620.95-6.95 620.95-3.45 615.05 0 607.05 0 607.05-5.3 614.4-5.3 614.4-6.95ZM590.75-18.55L590.75-3.45 596.65 0 604.6 0 604.6-5.3 597.05-5.3 597.05-9.4 604.6-9.4 604.6-13.25 597.05-13.25 597.05-17.35 604.6-17.35 604.6-22.05 596.65-22.05 590.75-18.55ZM658.75-9.7L658.75-3.45 653.05 0 645 0 645-5.25 652.7-5.25 652.7-9.3 645.15-9.3 645.15-13.2 653.05-13.2 658.75-9.7ZM628.95-12.75L628.95-18.4 634.65-21.85 642.75-21.85 642.75-17.2 635.25-17.2 635.25-13.2 642.75-13.2 642.75-9.3 634.65-9.3 628.95-12.75ZM628.95-6.95L635.25-6.95 635.25-5.25 642.75-5.25 642.75 0 634.65 0 628.95-3.45 628.95-6.95ZM658.75-15.05L652.5-15.05 652.5-17.2 645-17.2 645-21.85 653.05-21.85 658.75-18.4 658.75-15.05Z" opacity="1" transform="matrix(1,0,0,1,0,0)" fill="#ffffff" class="slogan-text-1" data-fill-palette-color="quaternary" id="text-1"></path></svg></g></svg></g></svg></g></svg></g></svg></g><defs></defs></svg><rect width="395.52" height="89.99182208465464" fill="none" stroke="none" visibility="hidden"></rect></g></svg></g></svg>